<svg fill="#EBEDF2" id="Capa_1" data-name="Capa 1" xmlns="http://www.w3.org/2000/svg" viewBox="0 0 1048.9 186.85"><path d="M0,0H66.6q59.21,0,59.21,46.59,0,23.1-20.28,38.4,29.41,12.77,29.41,45.52,0,25.11-17.32,40a49.55,49.55,0,0,1-18.13,9.94q-9.66,2.82-26,2.82H63.11V136.15h9.26q8.19,0,11.55-2.08t3.35-7.32q0-8.86-13.69-8.86H63.11V69q15,0,15-10.33,0-9.54-13.56-9.54H54.51V183.28H0Z"/><path d="M194.91,111.36v37.8H182.62v34.12H140V92.15q0-26.45,14.44-41.1T195,36.41q25.2,0,37.27,13.28t12.07,41v92.6H201.73V93.52q0-8.4-2-11.66c-1.33-2.16-3.71-3.25-7.13-3.25q-10,0-10,14.91v17.84Z"/><path d="M361.16,40,320.64,103.7v79.58H278V103.7L237.18,40h43.25l18.48,29.5L318.75,40Z"/><path d="M407.92,78.51V183.28H365.3V40H420q25,0,38.74,12.39,15.33,13.85,15.33,35.16,0,21.73-19,36.64l24.56,59.11H434.9l-20.68-46.2V100.24h3.36q13.44,0,13.44-11.55,0-10.18-15.54-10.18Z"/><path d="M551.82,36.41q30.43,0,52.22,22.15t21.79,53q0,31.4-21.94,53.33t-53.33,21.95q-31.18,0-53.23-22t-22.05-53.23q0-31.48,22.21-53.33T551.82,36.41Zm-1.26,42.2a29.78,29.78,0,0,0-22.36,9.66,32.5,32.5,0,0,0-9.24,23.3,32.38,32.38,0,0,0,9.29,23.31,30.76,30.76,0,0,0,44.72.05,32.56,32.56,0,0,0,9.19-23.36A32.56,32.56,0,0,0,573,88.22,29.83,29.83,0,0,0,550.56,78.61Z"/><path d="M632.93,183.28v-93q0-24.45,14.65-39.15t39-14.7q24.24,0,37.11,14.28t12.86,41v91.55H693.93V91.73q0-13.12-9.35-13.12-9,0-9,13.12v91.55Z"/><path d="M876.63,0V183.28H825.07V43.37L802.25,88.75h11.28v39.88H742L796.21,0Z"/><path d="M938.85,0V183.28h-52V0Z"/><path d="M948.38,0H1048.9V183.28H948.38ZM984.9,54.24V129h27.55V54.24Z"/></svg>