<svg fill="#231773" id="Capa_1" data-name="Capa 1" xmlns="http://www.w3.org/2000/svg" viewBox="0 0 411.83 183.44"><path d="M134.94,183.44H80.43V49.3H70.36q-13.56,0-13.56,9.54,0,10.34,15,10.34v48.87H61.36q-13.7,0-13.69,8.86,0,5.24,3.35,7.32t11.55,2.08h9.26v47.13H61.49q-16.38,0-26-2.82a49.55,49.55,0,0,1-18.13-9.94Q0,155.79,0,130.67,0,97.91,29.4,85.15,9.14,69.85,9.13,46.75,9.13.16,68.34.16h66.6Z"/><path d="M223.25.16,277.5,128.79H205.93V88.91h11.28L194.39,43.53V183.44H142.83V.16Z"/><path d="M299.46,180.78H206V136h74.36l13.5,31.64Z"/><path d="M335,0,282.78,0,231.12,0l76.73,183L360,183l51.79,0Zm-8.53,138.46L287.14,44.55h29.34l39.33,93.91Z"/></svg>