<?xml version="1.0" encoding="utf-8" standalone="no"?>
<!DOCTYPE svg PUBLIC "-//W3C//DTD SVG 20010904//EN" "http://www.w3.org/TR/2001/REC-SVG-20010904/DTD/svg10.dtd"[]>
<svg version="1.0" xmlns="http://www.w3.org/2000/svg" width="4096" height="2475.55" viewBox="0 0 4096 2475.55" preserveAspectRatio="xMidYMid meet">
  <g transform="translate(0.000000,3215.000000) scale(0.100000,-0.100000)" fill="#231773" stroke="none">
    <path d="M16650 32126 c-323 -34 -593 -93 -890 -195 -769 -262 -1442 -767 -1917 -1437 -39 -55 -2320 -3703 -5069 -8109 -3537 -5668 -5024 -8043 -5087 -8125 -460 -591 -744 -1298 -829 -2065 -20 -184 -17 -694 6 -870 150 -1176 732 -2161 1679 -2840 546 -391 1214 -644 1897 -720 80 -8 260 -29 400 -45 1084 -125 2303 -213 3580 -260 1272 -46 2864 -46 4210 0 3268 113 6611 480 9875 1086 809 150 983 190 1226 282 433 164 819 412 1144 737 521 519 828 1144 932 1895 24 175 24 623 0 800 -84 597 -303 1122 -670 1600 -31 41 -121 172 -200 290 -599 904 -1572 1974 -2677 2944 -1297 1139 -2823 2188 -4495 3088 -121 65 -214 118 -208 118 6 0 87 -9 180 -20 1217 -143 2644 -168 3718 -64 88 9 246 17 350 19 105 2 240 10 300 18 1106 152 1988 970 2204 2045 38 189 46 274 46 512 -1 270 -14 386 -75 626 -50 197 -94 315 -190 509 -90 181 -179 321 -304 477 -47 59 -1334 1468 -2860 3132 -1526 1663 -2793 3048 -2817 3077 -233 278 -389 439 -579 598 -575 482 -1250 779 -2004 882 -194 27 -685 35 -876 15z m429 -5132 c618 -309 2288 -1704 2859 -2389 128 -152 201 -281 187 -326 -50 -155 -1336 -321 -3115 -401 -160 -7 -560 -13 -910 -13 -653 0 -835 8 -1056 45 -197 34 -234 60 -234 164 0 124 64 304 214 604 461 920 1397 2175 1761 2358 94 48 122 43 294 -42z m-4756 -7744 c535 -140 2387 -1031 4187 -2013 2809 -1533 4931 -2945 5719 -3807 331 -363 458 -660 351 -822 -305 -460 -2958 -795 -7260 -918 -963 -27 -1528 -34 -2830 -34 -1555 0 -2267 13 -3235 59 -1173 57 -1748 135 -1802 245 -17 34 -16 154 2 238 131 625 1063 2325 2270 4142 1027 1545 1947 2693 2319 2891 103 55 133 57 279 19z" />
    <path d="M26750 20820 c-613 -47 -1145 -464 -1341 -1050 -62 -186 -82 -330 -76 -535 6 -186 23 -287 76 -444 64 -192 156 -353 293 -516 107 -128 471 -654 998 -1445 2062 -3092 3513 -5729 4028 -7320 39 -120 41 -131 46 -290 3 -127 10 -189 29 -270 72 -302 203 -537 421 -755 289 -288 628 -436 1031 -452 440 -17 844 144 1155 459 208 210 363 504 416 785 45 244 316 1401 489 2088 264 1047 450 1667 580 1928 56 111 52 110 134 36 162 -144 354 -272 512 -341 111 -47 190 -68 287 -73 42 -2 122 -11 177 -19 312 -49 663 20 944 185 363 214 613 565 702 989 30 141 32 399 5 540 -61 314 -190 556 -415 780 -154 153 -154 153 -886 574 -515 297 -560 324 -557 347 2 13 91 485 197 1049 107 564 200 1068 206 1120 30 250 -33 574 -157 809 -241 455 -671 743 -1184 791 -255 24 -545 -32 -784 -152 -278 -139 -536 -403 -666 -680 -77 -164 -94 -235 -312 -1270 -17 -82 -35 -148 -41 -148 -5 0 -89 41 -186 92 -1974 1026 -3448 1829 -4361 2376 -386 232 -465 284 -550 366 -279 270 -597 414 -978 446 -64 5 -121 9 -127 8 -5 0 -53 -4 -105 -8z m4466 -5631 c107 -33 332 -132 519 -228 285 -146 473 -267 550 -353 37 -40 37 -41 31 -105 -23 -224 -123 -637 -183 -757 -31 -63 -51 -86 -73 -86 -76 0 -624 784 -853 1220 -96 183 -136 298 -110 323 11 12 49 8 119 -14z" />
    <path d="M0 2690 l0 -2620 1573 3 1572 3 100 22 c55 13 146 38 202 57 522 174 894 631 999 1230 82 466 -9 915 -264 1300 -85 129 -290 336 -419 423 -178 120 -391 210 -590 249 -51 10 -93 20 -93 23 0 3 22 22 50 43 75 56 156 160 211 272 205 419 111 935 -235 1281 -148 149 -312 243 -526 302 l-95 27 -1242 3 -1243 3 0 -2621z m2103 1675 c158 -33 287 -126 348 -251 82 -167 31 -411 -108 -522 -59 -46 -158 -90 -233 -101 -39 -7 -270 -11 -567 -11 l-503 0 0 450 0 450 498 0 c394 0 511 -3 565 -15z m394 -1686 c288 -32 526 -150 676 -334 59 -73 131 -217 152 -305 23 -97 29 -233 16 -335 -50 -380 -296 -612 -734 -692 -79 -14 -195 -17 -824 -20 l-733 -4 0 850 0 851 675 0 c415 0 713 -4 772 -11z" />
    <path d="M31747 5063 c-117 -137 -813 -945 -1547 -1798 -733 -852 -1340 -1558 -1348 -1567 -13 -16 -5 -41 83 -258 l98 -240 1353 0 1354 0 0 -565 0 -565 520 0 520 0 0 565 0 565 363 2 362 3 3 447 2 448 -365 0 -365 0 0 1605 0 1605 -410 0 -409 0 -214 -247z m-10 -2960 c-2 -2 -312 -2 -688 -1 l-684 3 685 795 685 795 3 -794 c1 -437 1 -796 -1 -798z" />
    <path d="M20565 4718 c-202 -22 -466 -91 -670 -174 -587 -240 -1073 -714 -1309 -1277 -129 -308 -180 -559 -180 -892 -1 -275 27 -457 104 -699 119 -372 313 -681 606 -966 343 -334 766 -557 1234 -650 197 -39 307 -50 517 -50 583 0 1122 185 1568 539 103 81 286 263 370 366 210 258 369 576 450 894 132 526 77 1068 -159 1556 -118 245 -240 418 -435 619 -399 409 -907 659 -1481 731 -137 17 -480 19 -615 3z m595 -897 c297 -60 546 -196 766 -415 218 -219 347 -455 411 -756 26 -123 26 -439 -1 -565 -124 -590 -575 -1037 -1176 -1166 -139 -30 -427 -33 -565 -6 -149 29 -279 74 -413 143 -415 211 -703 595 -788 1049 -28 149 -26 413 5 555 61 287 186 521 387 730 240 248 544 403 884 450 104 14 381 4 490 -19z" />
    <path d="M38538 4715 c-370 -51 -735 -207 -1012 -434 -155 -127 -328 -326 -438 -504 -386 -620 -474 -1567 -217 -2342 113 -340 293 -631 535 -865 164 -159 317 -265 517 -360 291 -138 576 -200 917 -200 343 0 631 63 918 200 202 97 352 202 516 360 353 341 559 770 651 1360 23 142 31 568 16 737 -47 493 -201 925 -452 1263 -77 104 -247 281 -349 363 -277 224 -633 373 -1008 422 -139 18 -458 18 -594 0z m544 -894 c443 -117 767 -505 885 -1060 25 -117 27 -143 28 -381 0 -262 -6 -320 -47 -485 -127 -511 -449 -870 -874 -977 -126 -31 -341 -32 -466 0 -389 97 -697 410 -843 857 -118 360 -120 823 -4 1178 154 474 492 805 902 883 102 19 319 12 419 -15z" />
    <path d="M6991 4633 c-16 -32 -509 -1066 -1096 -2298 -587 -1232 -1071 -2248 -1076 -2257 -9 -17 17 -18 489 -18 l498 0 206 468 206 467 1033 0 1033 0 209 -467 210 -468 494 0 c418 0 494 2 491 14 -2 8 -498 1049 -1103 2315 l-1100 2301 -232 0 -233 0 -29 -57z m604 -2083 c185 -404 340 -743 342 -752 5 -17 -32 -18 -687 -18 -655 0 -692 1 -686 18 34 88 682 1499 687 1494 4 -4 158 -338 344 -742z" />
    <path d="M8970 4682 c0 -4 396 -692 880 -1527 l880 -1519 0 -788 0 -788 475 0 475 0 0 781 0 781 888 1526 c488 839 888 1529 890 1534 2 4 -239 8 -536 8 l-539 0 -584 -1019 -583 -1020 -51 87 c-28 48 -293 507 -590 1020 l-540 932 -532 0 c-293 0 -533 -4 -533 -8z" />
    <path d="M13980 2376 l0 -2316 470 0 470 0 0 595 0 595 519 0 519 0 444 -594 443 -595 563 0 c439 -1 562 2 556 11 -6 9 -947 1217 -1055 1354 -6 7 23 26 84 57 479 239 755 657 828 1252 18 147 15 457 -5 590 -61 395 -202 686 -445 917 -235 224 -524 352 -944 421 -128 20 -164 21 -1289 24 l-1158 4 0 -2315z m2085 1483 c458 -56 730 -335 776 -795 21 -208 -13 -403 -99 -569 -37 -71 -66 -109 -137 -180 -105 -105 -197 -161 -343 -211 -200 -68 -192 -67 -794 -71 l-548 -4 0 920 0 921 528 0 c323 0 562 -4 617 -11z" />
    <path d="M24100 2375 l0 -2315 470 0 470 0 0 1451 c0 798 4 1449 8 1447 5 -1 626 -654 1381 -1451 l1372 -1447 230 0 229 0 0 2315 0 2315 -472 -2 -473 -3 -5 -1448 -5 -1448 -1370 1448 -1369 1448 -233 3 -233 2 0 -2315z" />
    <path d="M34655 4519 c-417 -94 -761 -172 -764 -175 -6 -6 170 -746 180 -758 4 -5 185 31 416 83 224 50 414 91 421 91 9 0 12 -377 12 -1850 l0 -1850 475 0 475 0 0 2315 0 2315 -227 -1 -228 -1 -760 -169z" />
  </g>
</svg>